# xmcd
#
# Track frame offsets:
# 150
# 14990
# 27415
# 40188
# 50205
# 62980
# 75062
# 86838
# 101874
# 118452
#
# Disc length: 1772 seconds
#
#
# Revision: 0
# Processed by: cddbd v1.4PL0 Copyright (c) Steve Scherf et al.
# Submitted via: FreeRIP 2.00 
#
DISCID=8f06ea0a
DTITLE=Waylon Jennings - Black On Black
DYEAR=1982
DGENRE=Country
TTITLE0=Women Do Know How To Carry On
TTITLE1=Honky Tonk Blues
TTITLE2=Just To Satisfy You
TTITLE3=We Made It As Lovers
TTITLE4=Shine
TTITLE5=Folsom Prison Blues
TTITLE6=Gonna Write A Letter
TTITLE7=May I Borrow Some Sugar From You
TTITLE8=Song For The Life
TTITLE9=Get Naked With Me
EXTD=RCA Victor\nAHL1 4247
EXTT0=
EXTT1=
EXTT2=
EXTT3=
EXTT4=
EXTT5=
EXTT6=
EXTT7=
EXTT8=
EXTT9=
PLAYORDER=
